<svg width="16" height="16" viewBox="0 0 16 16" fill="none" xmlns="http://www.w3.org/2000/svg">
<path d="M4.86059 13.8826L1.33326 14.6666L2.11726 11.1393C1.60095 10.1735 1.33161 9.09502 1.33326 7.99992C1.33326 4.31792 4.31793 1.33325 7.99993 1.33325C11.6819 1.33325 14.6666 4.31792 14.6666 7.99992C14.6666 11.6819 11.6819 14.6666 7.99993 14.6666C6.90483 14.6682 5.82634 14.3989 4.86059 13.8826ZM5.05393 12.4739L5.48926 12.7073C6.26163 13.12 7.12419 13.3351 7.99993 13.3333C9.05476 13.3333 10.0859 13.0205 10.963 12.4344C11.84 11.8484 12.5236 11.0154 12.9273 10.0409C13.331 9.06636 13.4366 7.994 13.2308 6.95944C13.025 5.92487 12.517 4.97456 11.7712 4.22868C11.0253 3.4828 10.075 2.97485 9.04041 2.76906C8.00584 2.56328 6.93349 2.66889 5.95895 3.07256C4.98441 3.47623 4.15146 4.15982 3.56542 5.03688C2.97939 5.91394 2.66659 6.94509 2.66659 7.99992C2.66659 8.88925 2.88326 9.74525 3.29326 10.5106L3.52593 10.9459L3.08926 12.9106L5.05393 12.4739Z" fill="white"/>
</svg>
